<svg xmlns="http://www.w3.org/2000/svg" width="864" height="864" viewBox="0 0 864 864">
<g>
<path d="M 451.00 670.35 C446.81,668.97 444.64,667.22 442.91,663.82 C441.26,660.58 441.00,657.84 441.00,643.51 C441.00,624.89 440.12,621.15 435.13,618.57 C430.73,616.29 428.22,616.63 424.92,619.92 C422.04,622.81 422.00,622.99 421.99,634.17 C421.99,647.41 421.03,651.66 417.26,655.19 C413.58,658.63 410.90,659.32 406.12,658.03 C399.76,656.32 397.85,652.25 397.52,639.65 C397.37,633.99 396.92,628.27 396.51,626.93 C395.28,622.87 391.95,620.00 388.50,620.00 C384.18,620.00 381.42,623.32 380.62,629.46 C379.73,636.36 375.28,641.00 369.55,641.00 C366.22,640.99 363.57,640.19 361.59,638.55 C361.43,638.14 361.06,637.50 360.56,636.78 C359.70,635.56 358.95,632.97 358.88,631.03 C358.82,629.09 358.38,626.15 357.92,624.50 C357.30,622.29 357.17,623.16 357.45,627.79 C357.57,629.96 357.96,632.26 358.45,634.03 C357.48,631.59 357.01,628.48 357.01,624.68 C357.00,622.04 356.56,619.05 356.02,618.04 C354.61,615.40 349.62,613.89 346.23,615.07 C341.78,616.62 340.71,619.50 340.04,631.71 C339.34,644.24 338.04,646.84 331.35,649.05 C326.67,650.59 322.87,649.49 318.94,645.44 L 315.58 641.98 L 315.04 625.01 C314.52,608.55 314.43,607.97 312.00,605.65 C310.62,604.33 306.30,602.05 302.40,600.59 C298.49,599.13 293.20,596.61 290.65,594.99 C279.81,588.12 269.41,575.59 265.45,564.64 C263.35,558.84 262.90,558.34 257.36,555.55 C241.20,547.41 229.96,528.69 228.23,508.95 C229.19,508.50 229.12,505.11 228.01,502.52 C228.05,500.24 228.23,497.97 228.54,495.71 C229.19,491.04 229.09,490.81 224.52,485.92 C217.28,478.18 213.81,469.57 213.25,458.00 C212.50,442.30 216.18,430.81 225.44,419.96 C229.60,415.09 230.00,414.16 230.00,409.35 C230.00,400.05 235.68,389.21 242.75,385.00 L 246.00 383.07 L 246.00 374.19 C246.00,361.99 250.02,350.60 257.22,342.40 C261.01,338.09 269.02,332.02 274.10,329.62 C276.96,328.26 277.62,327.45 277.28,325.67 C276.68,322.55 281.61,305.51 284.83,299.58 C292.61,285.24 307.64,275.29 325.32,272.78 L 333.13 271.67 L 335.67 266.67 C341.01,256.12 354.79,246.11 369.12,242.35 C372.93,241.35 379.33,240.68 385.00,240.68 C402.20,240.68 414.67,245.67 426.37,257.24 L 433.23 264.03 L 438.37 258.71 C445.18,251.66 450.94,247.85 460.00,244.42 C466.87,241.82 468.64,241.57 481.00,241.54 C493.63,241.50 494.95,241.68 501.50,244.38 C514.58,249.76 522.96,256.57 528.73,266.50 L 531.64 271.50 L 537.59 271.65 C550.19,271.97 564.83,278.90 574.44,289.08 C582.78,297.92 586.86,306.43 588.86,319.17 L 590.39 328.84 L 595.42 331.17 C612.29,338.98 624.60,363.10 621.01,381.33 C620.38,384.56 620.00,387.29 620.18,387.41 C626.57,391.70 631.22,395.73 633.26,398.72 C635.84,402.52 639.00,410.72 639.00,413.63 C639.00,414.48 640.59,417.04 642.53,419.31 C653.51,432.13 657.39,455.05 651.54,472.48 C648.53,481.43 647.04,484.03 641.61,489.76 L 637.57 494.01 L 637.45 506.76 C637.34,517.62 636.93,520.69 634.67,527.58 C631.90,536.02 625.06,546.86 618.86,552.62 C610.90,560.02 597.59,567.00 591.44,567.00 C589.66,567.00 588.65,567.78 587.87,569.75 C583.51,580.81 581.00,584.96 575.00,591.09 C571.42,594.74 566.67,598.65 564.43,599.79 C557.75,603.18 557.56,603.71 556.95,620.14 C556.41,634.81 556.37,635.01 553.51,637.99 C549.78,641.88 544.42,642.13 540.32,638.60 C537.78,636.41 537.47,635.42 536.96,627.64 C536.23,616.69 534.80,614.78 527.66,615.20 C520.41,615.64 518.82,618.15 518.88,629.10 C518.94,639.77 517.84,644.51 514.49,648.01 C509.68,653.03 501.87,652.44 497.81,646.73 C496.00,644.20 495.51,642.09 495.41,636.52 C495.25,626.72 494.31,623.44 490.85,620.53 C484.80,615.43 473.94,618.39 469.80,626.26 C467.84,629.97 467.50,632.50 467.03,646.55 C466.59,659.81 466.18,663.08 464.67,665.38 C461.96,669.52 455.55,671.85 451.00,670.35 ZM 474.73 600.98 C480.43,602.41 491.77,601.45 498.38,598.97 C501.81,597.68 506.89,594.52 510.60,591.38 C514.09,588.42 517.41,586.00 517.99,586.00 C518.56,586.00 521.39,587.33 524.27,588.95 C530.99,592.73 540.19,594.26 547.81,592.87 C562.94,590.10 573.53,578.51 576.32,561.65 L 577.50 554.50 L 586.00 553.90 C596.25,553.17 601.94,550.73 609.49,543.84 C623.13,531.37 628.27,513.09 623.33,494.57 C622.42,491.13 621.92,487.64 622.24,486.81 C622.56,485.99 624.37,484.58 626.27,483.68 C633.87,480.07 641.11,469.07 642.49,459.06 C644.02,447.96 638.06,431.94 629.57,424.30 C624.58,419.81 624.50,419.65 624.50,413.93 C624.50,408.66 624.18,407.78 621.07,404.58 C617.34,400.72 614.35,399.50 606.09,398.45 C600.85,397.79 596.00,394.71 596.00,392.05 C596.00,389.81 600.19,386.80 602.65,387.27 C605.75,387.87 607.61,386.03 609.16,380.87 C611.57,372.82 606.00,356.36 598.11,348.23 C589.42,339.28 575.06,335.04 560.00,337.00 C548.12,338.54 544.00,336.64 544.00,329.61 C544.00,326.15 542.04,322.15 540.02,321.51 C539.10,321.22 537.06,319.63 535.48,317.98 C533.02,315.41 532.75,314.61 533.59,312.25 C534.46,309.77 535.04,309.49 539.53,309.42 C542.26,309.37 545.68,309.92 547.13,310.63 C550.57,312.33 554.55,317.13 556.12,321.46 C557.69,325.79 558.94,326.28 564.58,324.77 C568.11,323.82 569.50,323.83 571.05,324.80 C572.14,325.48 574.15,325.75 575.54,325.40 C577.81,324.83 577.99,324.42 577.40,321.14 C574.67,305.70 566.59,294.55 552.97,287.38 C547.82,284.67 546.79,284.50 535.41,284.50 C522.50,284.50 520.01,283.71 519.99,279.63 C519.96,272.97 510.84,261.53 501.94,256.97 C491.20,251.48 474.23,250.60 462.80,254.94 C452.83,258.73 443.67,268.93 441.59,278.55 C441.23,280.22 440.87,296.66 440.79,315.08 L 440.66 348.57 L 443.39 354.53 C446.76,361.90 449.11,364.47 455.50,367.80 C459.71,369.99 461.84,370.41 469.00,370.45 C479.26,370.50 484.44,368.47 491.94,361.46 C496.97,356.75 499.38,356.21 500.64,359.51 C500.97,360.37 500.06,364.32 498.62,368.29 C492.90,383.99 497.04,396.03 509.67,400.47 C518.75,403.67 521.02,404.98 522.92,408.11 C525.56,412.44 526.28,417.25 525.00,421.98 C524.12,425.27 522.89,426.67 518.21,429.75 C507.76,436.61 505.35,446.38 511.59,456.50 C513.19,459.08 515.33,462.52 516.35,464.12 C519.28,468.73 517.94,471.61 511.55,474.44 C507.63,476.17 505.37,478.00 503.32,481.10 C500.58,485.24 500.50,485.75 500.50,498.63 C500.50,508.18 500.14,512.26 499.20,513.20 C498.25,514.15 493.94,514.50 483.20,514.50 C469.60,514.50 468.13,514.68 463.54,516.96 C453.21,522.08 447.23,531.17 444.43,546.00 C441.70,560.46 444.32,573.94 451.99,584.88 C457.89,593.28 465.45,598.63 474.73,600.98 ZM 370.31 602.20 C381.93,606.36 396.89,602.17 406.28,592.14 C417.13,580.54 422.63,560.99 420.05,543.21 C418.22,530.56 411.68,521.41 401.12,516.72 C397.17,514.96 394.65,514.69 383.68,514.81 C371.35,514.94 370.77,514.86 368.43,512.52 C366.67,510.76 366.00,508.99 366.00,506.10 C366.00,503.91 366.45,501.84 367.00,501.50 C367.55,501.16 368.00,498.46 368.00,495.50 C368.00,492.54 367.55,489.84 367.00,489.50 C366.45,489.16 366.00,488.08 366.00,487.09 C366.00,483.84 360.11,476.97 355.69,475.08 C353.37,474.09 350.97,472.65 350.36,471.89 C348.36,469.40 349.54,464.48 353.33,459.52 C362.15,447.96 360.20,438.25 347.24,429.21 C339.41,423.75 337.73,419.62 340.43,412.54 C342.49,407.14 345.35,404.71 352.31,402.41 C359.51,400.03 361.67,398.42 364.79,393.11 C368.47,386.85 368.43,378.45 364.68,368.08 C361.51,359.30 361.38,357.40 363.84,356.08 C365.31,355.30 366.78,355.92 371.03,359.11 C378.66,364.85 382.42,366.21 391.00,366.35 C401.43,366.52 407.89,364.13 414.56,357.62 C418.91,353.38 420.17,351.30 421.95,345.50 C423.92,339.07 424.09,336.26 424.10,310.39 C424.10,294.93 423.79,280.97 423.41,279.39 C422.32,274.88 418.31,267.43 414.86,263.50 C401.14,247.86 369.70,248.25 352.33,264.27 C347.41,268.80 344.63,273.54 343.62,279.09 C342.75,283.87 339.70,285.48 332.98,284.68 C322.82,283.48 311.21,287.42 302.74,294.95 C297.12,299.96 291.22,311.31 290.33,318.88 L 289.74 323.88 L 300.08 323.55 C305.77,323.37 310.57,322.78 310.75,322.25 C311.94,318.69 317.22,312.19 320.26,310.56 C323.20,308.98 324.58,308.79 327.68,309.56 C331.00,310.38 331.54,310.91 331.81,313.69 C332.02,315.89 331.51,317.40 330.17,318.55 C323.97,323.88 323.19,324.94 322.54,328.78 C321.47,335.10 320.47,335.49 305.10,335.60 C294.15,335.69 290.23,336.12 285.00,337.83 C268.21,343.31 257.00,357.40 257.00,373.04 L 257.00 379.00 L 260.17 379.00 C263.78,379.00 267.00,381.43 267.00,384.15 C267.00,386.92 263.63,389.76 258.80,391.04 C252.82,392.63 248.36,395.57 245.47,399.83 C243.31,403.01 243.00,404.56 243.00,412.17 L 243.00 420.88 L 238.49 424.11 C229.99,430.22 224.82,441.02 224.68,453.00 C224.52,466.73 230.53,477.40 240.96,481.89 C246.55,484.29 246.91,485.31 244.09,490.81 C240.90,497.09 239.60,505.97 240.86,513.09 C242.18,520.60 246.57,530.30 250.85,535.17 C254.26,539.06 262.14,543.43 268.57,544.99 C272.61,545.97 272.65,546.04 273.81,552.24 C278.36,576.74 303.23,595.17 326.26,591.11 C332.07,590.09 335.76,588.59 342.58,584.50 C344.28,583.49 346.38,582.93 347.26,583.27 C348.13,583.60 350.70,586.39 352.96,589.45 C357.61,595.73 362.71,599.49 370.31,602.20 ZM 493.32 559.42 C490.97,562.15 489.83,562.41 486.36,561.01 C480.70,558.73 479.43,551.78 483.78,546.92 C486.48,543.90 486.91,543.78 498.12,542.95 C515.12,541.68 522.42,538.71 530.68,529.74 C540.84,518.70 543.39,505.93 538.83,488.97 C537.13,482.63 536.99,480.76 537.94,477.21 C539.23,472.45 544.15,466.99 549.78,464.10 C557.34,460.21 561.43,453.72 562.60,443.74 C563.89,432.81 558.10,421.96 548.23,416.79 C546.44,415.84 544.68,414.33 544.33,413.43 C543.99,412.52 544.29,406.64 545.02,400.36 C546.53,387.18 545.64,380.98 541.32,374.75 C537.41,369.09 533.46,367.06 526.87,367.30 C523.36,367.43 520.70,366.99 519.66,366.13 C517.39,364.25 517.58,359.75 520.12,354.77 C524.18,346.81 520.72,335.04 512.28,328.08 C505.76,322.71 494.61,320.34 483.00,321.88 C476.02,322.80 473.71,322.19 471.97,318.94 C469.22,313.80 473.78,310.68 485.75,309.51 C489.74,309.12 493.26,308.39 493.56,307.90 C493.87,307.40 494.46,304.86 494.87,302.24 C495.52,298.14 495.27,296.88 493.06,293.11 C490.12,288.08 485.13,285.00 479.92,285.00 C475.74,285.00 473.00,282.57 473.00,278.87 C473.00,275.14 474.85,274.00 480.88,274.00 C487.63,274.00 493.18,276.52 499.02,282.26 C504.95,288.07 507.26,293.72 507.80,303.80 L 508.26 312.10 L 512.88 314.47 C519.28,317.75 526.37,325.36 529.68,332.50 C531.83,337.14 532.54,340.37 532.83,346.78 L 533.21 355.07 L 537.32 357.16 C547.09,362.15 552.94,369.47 555.56,380.00 C557.83,389.07 558.59,389.67 564.47,386.91 C572.76,383.01 575.14,376.04 570.50,369.21 C567.58,364.92 567.43,363.71 569.57,361.57 C573.20,357.95 581.41,361.12 584.33,367.28 C590.30,379.86 578.87,397.50 562.80,400.51 C559.56,401.12 559.15,401.56 558.74,404.84 C558.33,408.12 558.75,408.95 562.72,412.81 C571.40,421.24 575.66,435.69 573.10,448.01 C572.00,453.32 568.25,460.69 563.89,466.13 L 561.79 468.76 L 566.34 472.96 C574.58,480.55 580.00,491.82 580.00,501.33 C580.00,503.67 581.12,507.51 582.72,510.68 C585.55,516.27 585.38,518.10 581.80,520.35 C577.46,523.09 569.75,514.55 570.08,507.38 C570.26,503.68 568.48,495.09 566.63,490.67 C564.74,486.12 558.71,479.54 555.08,478.03 C552.92,477.14 551.65,477.12 550.09,477.95 C549.18,478.44 548.59,478.75 548.32,479.24 C547.85,480.11 548.39,481.53 549.89,485.50 C554.32,497.26 553.36,513.78 547.55,525.50 C541.50,537.71 528.83,548.58 514.83,553.58 C512.45,554.43 507.13,555.51 503.02,555.98 C496.81,556.69 495.17,557.27 493.32,559.42 ZM 381.93 559.37 C378.73,563.43 374.99,562.31 372.59,556.57 C371.23,553.31 371.07,553.24 363.35,552.58 C351.35,551.55 345.09,550.10 338.19,546.74 C322.66,539.18 312.44,522.06 313.58,505.50 C314.17,496.88 314.68,493.70 316.59,486.78 C319.09,477.73 318.12,476.73 310.44,480.48 C301.62,484.80 296.23,493.51 296.08,503.68 C295.96,511.45 291.54,514.54 287.00,510.00 C285.45,508.45 285.00,506.67 285.00,502.04 C285.00,495.53 288.26,485.22 290.60,484.32 C291.37,484.03 292.00,483.23 292.00,482.54 C292.00,481.12 302.73,471.00 304.24,471.00 C304.79,471.00 303.56,469.14 301.50,466.87 C292.22,456.60 288.94,442.13 292.93,429.01 C294.83,422.73 295.99,420.89 301.56,415.17 C305.10,411.54 308.00,408.24 308.00,407.83 C308.00,407.43 307.50,406.01 306.90,404.68 C305.97,402.64 304.86,402.17 299.74,401.63 C291.06,400.72 283.76,397.11 280.42,392.06 C276.67,386.38 276.16,376.07 279.34,369.79 C282.96,362.62 290.75,358.89 294.43,362.57 C296.74,364.88 296.36,367.27 293.04,371.45 C289.34,376.10 288.64,378.27 289.45,382.57 C290.43,387.80 297.81,390.94 303.50,388.56 C306.39,387.36 307.09,386.24 309.49,379.03 C310.99,374.53 312.84,370.62 313.60,370.32 C314.36,370.03 314.77,369.44 314.51,369.02 C313.71,367.72 323.77,358.99 328.44,356.93 L 332.81 354.99 L 333.17 345.75 C333.47,338.04 333.99,335.59 336.33,331.00 C339.75,324.29 346.88,316.81 352.11,314.45 L 356.00 312.70 L 356.00 306.03 C356.00,292.57 361.97,281.69 372.12,276.63 C381.53,271.94 392.00,273.68 392.00,279.93 C392.00,282.72 387.31,286.00 383.32,286.00 C375.31,286.00 369.57,292.61 369.57,301.82 C369.57,308.31 371.51,310.37 376.69,309.40 C378.50,309.06 380.78,309.13 381.74,309.55 C382.71,309.97 384.72,310.42 386.20,310.54 C387.69,310.66 389.60,311.46 390.45,312.31 C392.57,314.43 392.40,319.33 390.14,321.38 C388.49,322.86 387.42,322.93 381.06,321.94 C372.75,320.65 363.12,321.88 357.01,325.00 C345.43,330.90 340.13,345.89 345.80,356.71 C348.50,361.88 348.57,364.17 346.09,366.42 C344.59,367.77 343.21,368.00 339.70,367.48 C333.10,366.49 326.99,369.45 323.57,375.30 C319.57,382.11 318.69,389.65 320.59,400.84 C321.46,405.97 321.90,411.27 321.56,412.62 C321.19,414.10 318.90,416.38 315.72,418.42 C306.17,424.57 302.91,429.92 302.22,440.58 C301.47,452.12 305.03,457.75 318.50,466.32 C324.12,469.90 328.94,477.41 328.98,482.66 C328.99,484.40 327.82,490.24 326.38,495.65 C322.24,511.21 324.54,521.56 334.14,530.53 C341.89,537.78 346.24,539.26 362.00,539.99 C369.42,540.34 376.48,541.16 377.67,541.81 C383.93,545.21 386.08,554.09 381.93,559.37 ZM 400.64 492.72 C405.02,495.93 408.29,494.55 435.85,477.85 C450.51,468.97 466.23,459.48 470.80,456.78 C476.77,453.24 479.54,450.94 480.67,448.56 C482.20,445.35 482.17,445.17 479.51,442.19 C478.01,440.51 471.77,436.32 465.64,432.89 C459.51,429.46 445.27,421.04 434.00,414.19 C409.55,399.33 406.87,397.57 404.71,398.07 C404.28,398.17 403.88,398.35 403.34,398.54 C401.65,399.12 399.79,400.93 398.75,403.01 C397.18,406.15 397.01,410.32 397.03,445.00 C397.04,466.17 397.46,485.29 397.97,487.47 C398.48,489.66 399.68,492.02 400.64,492.72 ZM 610.60 508.49 C608.61,511.52 603.58,511.97 602.15,509.25 C601.65,508.29 601.04,503.23 600.80,498.00 C600.48,490.90 599.84,487.49 598.27,484.50 C595.91,480.02 589.14,473.21 584.30,470.45 C582.55,469.45 581.34,468.27 581.61,467.82 C581.89,467.37 581.64,467.00 581.06,467.00 C579.65,467.00 579.71,462.42 581.15,459.68 C581.79,458.48 584.26,455.32 586.64,452.65 C594.84,443.49 596.16,431.31 589.84,423.12 C587.48,420.06 587.52,418.48 590.00,416.00 C592.48,413.52 597.16,413.41 599.31,415.79 C602.57,419.39 605.37,427.44 605.62,433.95 L 605.88 440.40 L 610.39 441.72 C617.44,443.77 620.25,449.65 616.02,453.48 C614.06,455.25 609.15,455.27 604.81,453.52 C603.70,453.07 602.51,453.59 601.31,455.06 C600.32,456.28 598.28,458.72 596.80,460.47 L 594.09 463.66 L 599.67 469.08 C607.77,476.95 611.22,484.82 611.79,496.74 C612.15,504.17 611.92,506.48 610.60,508.49 ZM 266.80 508.80 C265.57,510.03 263.47,510.23 261.23,509.33 C256.67,507.50 255.45,492.23 259.07,482.54 C260.21,479.49 261.59,477.00 262.13,477.00 C262.67,477.00 262.88,476.62 262.59,476.15 C262.30,475.68 263.23,474.21 264.66,472.90 C266.10,471.58 268.07,469.20 269.06,467.61 C270.82,464.77 270.80,464.65 268.26,460.62 C266.83,458.36 265.67,455.97 265.67,455.30 C265.67,453.39 262.99,452.85 259.40,454.03 C254.60,455.62 250.05,453.02 250.02,448.67 C249.99,446.03 255.42,441.00 258.29,441.00 C260.65,441.00 260.76,440.69 261.20,433.18 C261.93,420.43 266.86,412.74 273.25,414.35 C277.26,415.35 278.17,418.95 275.73,424.10 C272.82,430.22 272.87,440.57 275.84,448.12 C277.05,451.21 280.29,456.30 283.02,459.43 C285.76,462.56 288.00,466.01 288.00,467.09 C288.00,469.41 285.41,471.94 278.54,476.33 C271.02,481.13 268.00,487.60 268.00,498.91 C268.00,504.34 267.55,508.05 266.80,508.80 ZM 329.15 571.04 C322.92,573.40 312.46,573.54 306.23,571.33 C300.12,569.17 291.73,561.14 289.03,554.86 C287.21,550.63 286.87,548.25 287.15,541.94 C287.57,532.82 289.48,529.71 294.35,530.20 C298.72,530.64 299.61,532.81 298.06,539.26 C296.44,546.00 297.60,550.25 302.27,554.77 C308.82,561.11 319.34,562.84 327.86,558.98 C330.26,557.89 333.22,557.00 334.45,557.00 C336.93,557.00 340.00,559.84 340.00,562.14 C340.00,564.57 334.67,568.94 329.15,571.04 ZM 559.96 572.43 C554.04,575.65 543.78,576.81 538.50,574.85 C534.54,573.39 529.30,569.43 527.93,566.87 C526.32,563.85 527.64,560.09 530.72,558.92 C532.88,558.10 534.48,558.39 539.07,560.45 C545.99,563.56 549.05,563.64 554.78,560.86 C557.93,559.34 560.21,557.15 562.68,553.29 C566.11,547.92 566.14,547.81 564.54,544.45 C561.60,538.25 563.52,534.05 569.30,534.02 C571.63,534.00 572.42,534.71 574.03,538.25 C579.47,550.25 573.34,565.14 559.96,572.43 ZM 200.98 375.48 C197.66,371.94 197.88,366.36 201.46,363.28 C209.74,356.15 219.73,368.27 211.97,376.03 C209.12,378.88 203.93,378.62 200.98,375.48 ZM 552.36 241.83 C550.20,240.78 548.00,237.08 548.00,234.50 C548.00,226.16 559.93,223.12 563.46,230.56 C564.89,233.57 564.90,234.30 563.58,237.47 C561.56,242.30 557.00,244.08 552.36,241.83 ZM 655.06 379.06 C651.27,375.27 653.33,369.40 658.82,368.37 C663.02,367.59 665.06,368.69 666.31,372.43 C668.36,378.59 659.70,383.70 655.06,379.06 ZM 212.22 561.44 C209.55,559.57 209.18,553.96 211.57,551.57 C213.72,549.42 219.93,549.53 221.61,551.75 C223.65,554.45 223.25,558.42 220.69,560.83 C217.95,563.39 215.28,563.59 212.22,561.44 ZM 569.89 262.64 C566.29,260.85 565.99,254.71 569.39,252.48 C572.60,250.37 574.79,250.84 577.25,254.14 C579.00,256.48 579.07,257.08 577.86,259.54 C576.16,262.99 573.05,264.20 569.89,262.64 Z" fill="rgba(17,47,51,1)"/>
<path d="M 359.43 636.54 C358.53,635.16 357.65,631.29 357.45,627.79 C357.17,623.16 357.30,622.29 357.92,624.50 C358.38,626.15 358.82,629.09 358.88,631.03 C358.95,632.97 359.70,635.56 360.56,636.78 C361.41,638.00 361.87,639.00 361.58,639.00 C361.29,639.00 360.32,637.89 359.43,636.54 ZM 227.07 504.75 C227.12,501.46 227.33,500.95 228.00,502.50 C229.20,505.29 229.20,509.00 228.00,509.00 C227.45,509.00 227.03,507.09 227.07,504.75 Z" fill="rgba(8,25,27,1)"/>
<path d="M 400.64 492.72 C399.68,492.02 398.48,489.66 397.97,487.47 C397.46,485.29 397.04,466.17 397.03,445.00 C397.01,416.88 397.12,408.82 398.00,405.10 L 398.00 443.59 C398.00,481.17 398.13,484.38 399.75,485.61 C403.45,488.41 407.29,487.23 419.08,479.68 C445.09,463.00 477.48,444.20 479.25,444.76 C479.66,444.89 480.00,444.40 480.00,443.67 C480.00,443.14 479.73,442.54 479.18,441.85 C479.31,441.98 479.42,442.09 479.51,442.19 C482.17,445.17 482.20,445.35 480.67,448.56 C479.54,450.94 476.77,453.24 470.80,456.78 C466.23,459.48 450.51,468.97 435.85,477.85 C408.29,494.55 405.02,495.93 400.64,492.72 ZM 414.56 402.43 C418.73,404.89 424.84,408.62 434.00,414.19 C437.85,416.53 442.05,419.06 446.15,421.50 C433.76,414.16 420.11,405.94 414.56,402.43 ZM 404.09 398.26 C404.30,398.18 404.50,398.11 404.71,398.07 C405.41,397.91 406.17,397.98 407.72,398.67 C406.33,398.19 405.16,398.05 404.09,398.26 ZM 467.16 433.76 C466.51,433.39 465.76,432.96 464.93,432.49 C465.18,432.63 465.42,432.76 465.64,432.89 C466.15,433.17 466.66,433.46 467.16,433.76 Z" fill="rgba(192,198,180,1)"/>
<path d="M 474.73 600.98 C465.45,598.63 457.89,593.28 451.99,584.88 C444.32,573.94 441.70,560.46 444.43,546.00 C444.55,545.37 444.67,544.75 444.80,544.14 C443.09,554.96 447.57,567.42 456.42,576.27 C461.19,581.03 465.83,583.65 473.00,585.63 C479.10,587.30 483.70,587.28 489.57,585.54 C496.75,583.40 503.45,578.77 507.49,573.15 C511.71,567.28 514.24,566.36 518.79,569.04 C521.98,570.92 522.22,570.93 524.53,569.25 C525.85,568.29 526.95,566.46 526.97,565.18 C527.02,561.43 528.48,559.26 531.15,558.76 C531.01,558.81 530.87,558.86 530.72,558.92 C527.64,560.09 526.32,563.85 527.93,566.87 C529.30,569.43 534.54,573.39 538.50,574.85 C543.78,576.81 554.04,575.65 559.96,572.43 C573.34,565.14 579.47,550.25 574.03,538.25 C573.12,536.25 572.47,535.16 571.66,534.59 C572.23,534.82 572.69,535.13 573.01,535.51 C573.80,536.46 574.68,536.69 575.38,536.13 C576.00,535.63 578.08,534.91 580.00,534.52 C588.00,532.89 597.35,525.00 601.51,516.39 C603.34,512.58 603.59,511.22 602.67,510.11 C602.61,510.03 602.54,509.91 602.47,509.74 C604.22,511.90 608.74,511.32 610.60,508.49 C611.92,506.48 612.15,504.17 611.79,496.74 C611.31,486.73 608.80,479.57 603.21,472.88 L 607.02 476.80 L 611.38 475.49 C621.91,472.32 629.57,466.22 633.35,458.00 C634.99,454.43 635.46,451.13 635.67,442.02 L 635.88 432.20 C640.77,440.36 643.60,451.00 642.49,459.06 C641.11,469.07 633.87,480.07 626.27,483.68 C624.37,484.58 622.56,485.99 622.24,486.81 C621.92,487.64 622.42,491.13 623.33,494.57 C628.27,513.09 623.13,531.37 609.49,543.84 C601.94,550.73 596.25,553.17 586.00,553.90 L 577.50 554.50 L 576.32 561.65 C573.53,578.51 562.94,590.10 547.81,592.87 C540.19,594.26 530.99,592.73 524.27,588.95 C521.39,587.33 518.56,586.00 517.99,586.00 C517.41,586.00 514.09,588.42 510.60,591.38 C506.89,594.52 501.81,597.68 498.38,598.97 C491.77,601.45 480.43,602.41 474.73,600.98 ZM 370.31 602.20 C362.71,599.49 357.61,595.73 352.96,589.45 C350.70,586.39 348.13,583.60 347.26,583.27 C346.38,582.93 344.28,583.49 342.58,584.50 C335.76,588.59 332.07,590.09 326.26,591.11 C303.23,595.17 278.36,576.74 273.81,552.24 C272.65,546.04 272.61,545.97 268.57,544.99 C262.14,543.43 254.26,539.06 250.85,535.17 C246.57,530.30 242.18,520.60 240.86,513.09 C239.60,505.97 240.90,497.09 244.09,490.81 C246.91,485.31 246.55,484.29 240.96,481.89 C231.74,477.92 225.97,469.12 224.87,457.65 C225.14,459.29 225.67,460.42 226.59,461.67 C230.38,466.79 236.90,470.90 245.31,473.48 C249.81,474.86 254.90,476.85 256.61,477.90 C259.44,479.63 259.72,479.76 261.02,478.29 C260.42,479.31 259.71,480.84 259.07,482.54 C255.45,492.23 256.67,507.50 261.23,509.33 L 258.79 508.79 L 259.50 513.15 C260.53,519.51 262.75,523.63 267.19,527.43 C270.96,530.66 277.33,533.02 282.19,532.98 C284.10,532.97 284.24,532.78 283.00,531.90 C281.86,531.09 282.33,530.97 284.89,531.42 C286.76,531.74 288.87,531.52 289.58,530.94 C290.36,530.29 291.82,530.06 293.34,530.15 C289.21,530.19 287.54,533.48 287.15,541.94 C286.87,548.25 287.21,550.63 289.03,554.86 C291.73,561.14 300.12,569.17 306.23,571.33 C312.46,573.54 322.92,573.40 329.15,571.04 C333.79,569.27 338.29,565.91 339.61,563.44 C338.89,567.68 344.86,573.00 350.52,573.00 C353.98,573.00 356.52,574.43 362.36,579.66 C365.10,582.11 369.25,584.63 371.86,585.43 C384.17,589.22 395.96,586.28 404.79,577.22 C412.45,569.34 420.29,550.25 419.72,541.24 C419.85,541.89 419.96,542.55 420.05,543.21 C422.63,560.99 417.13,580.54 406.28,592.14 C396.89,602.17 381.93,606.36 370.31,602.20 ZM 521.59 427.33 C523.60,425.66 524.39,424.28 525.00,421.98 C526.28,417.25 525.56,412.44 522.92,408.11 C521.02,404.98 518.75,403.67 509.67,400.47 C497.04,396.03 492.90,383.99 498.62,368.29 C500.06,364.32 500.97,360.37 500.64,359.51 C499.38,356.21 496.97,356.75 491.94,361.46 C484.44,368.47 479.26,370.50 469.00,370.45 C461.84,370.41 459.71,369.99 455.50,367.80 C449.11,364.47 446.76,361.90 443.39,354.53 L 440.66 348.57 L 440.79 315.08 C440.82,309.57 440.86,304.23 440.93,299.41 C440.92,302.08 440.92,304.87 440.94,307.72 C441.07,331.18 441.30,334.59 443.13,340.22 C447.73,354.32 455.36,361.00 466.87,361.00 C471.16,361.00 472.81,360.33 479.35,355.91 C483.50,353.11 488.38,350.48 490.19,350.08 C495.18,348.97 499.77,350.59 502.11,354.29 C503.92,357.14 504.09,358.60 503.61,367.37 C502.78,382.46 505.52,387.36 516.89,391.12 C527.79,394.72 532.68,401.74 531.79,412.48 C531.27,418.81 529.29,421.84 521.59,427.33 ZM 419.00 269.41 C421.03,272.86 422.75,276.66 423.41,279.39 C423.79,280.97 424.10,294.93 424.10,310.39 C424.09,336.26 423.92,339.07 421.95,345.50 C420.17,351.30 418.91,353.38 414.56,357.62 C407.89,364.13 401.43,366.52 391.00,366.35 C382.42,366.21 378.66,364.85 371.03,359.11 C366.78,355.92 365.31,355.30 363.84,356.08 C363.37,356.34 362.99,356.61 362.71,356.95 C362.76,354.43 363.24,353.30 364.47,352.40 C366.93,350.60 373.06,350.64 380.00,352.50 C395.45,356.65 406.91,352.00 413.55,338.90 C418.22,329.68 418.97,323.63 418.99,294.93 L 419.00 269.41 ZM 381.93 559.37 C386.08,554.09 383.93,545.21 377.67,541.81 C376.48,541.16 369.42,540.34 362.00,539.99 C346.24,539.26 341.89,537.78 334.14,530.53 C324.74,521.74 322.34,511.63 326.14,496.60 C326.03,497.04 325.94,497.45 325.86,497.83 C324.57,504.15 324.57,504.18 327.88,510.57 C331.76,518.04 336.24,522.30 343.95,525.84 C348.93,528.12 351.21,528.45 366.00,529.02 C377.39,529.45 383.59,530.12 386.02,531.17 C396.85,535.88 401.58,551.88 394.30,559.16 C390.47,562.99 386.58,563.95 380.87,562.47 C379.88,562.21 379.03,561.99 378.31,561.77 C379.52,561.64 380.76,560.85 381.93,559.37 ZM 488.09 563.25 C477.84,568.76 467.00,563.72 467.00,553.43 C467.00,547.99 468.41,544.26 471.81,540.66 C476.66,535.53 479.46,534.72 495.00,533.91 C516.93,532.77 525.31,528.68 536.61,513.57 C538.99,510.39 540.26,508.59 540.89,507.04 C540.24,515.63 536.88,523.01 530.68,529.74 C522.42,538.71 515.12,541.68 498.12,542.95 C486.91,543.78 486.48,543.90 483.78,546.92 C479.43,551.78 480.70,558.73 486.36,561.01 C488.25,561.77 489.45,562.04 490.53,561.68 C489.70,562.29 488.84,562.85 488.09,563.25 ZM 362.87 362.70 C363.29,364.13 363.89,365.89 364.68,368.08 C368.43,378.45 368.47,386.85 364.79,393.11 C361.67,398.42 359.51,400.03 352.31,402.41 C345.35,404.71 342.49,407.14 340.43,412.54 C338.02,418.86 339.10,422.82 344.92,427.48 C337.52,421.98 336.50,419.61 336.50,411.50 C336.50,401.37 337.85,399.71 353.85,390.10 C356.29,388.63 358.84,385.88 360.39,383.03 C362.73,378.73 363.24,375.26 362.87,362.70 ZM 326.74 494.27 C328.01,489.29 328.99,484.25 328.98,482.66 C328.94,477.41 324.12,469.90 318.50,466.32 C305.03,457.75 301.47,452.12 302.22,440.58 C302.24,440.18 302.27,439.79 302.31,439.40 C302.53,440.87 303.28,442.32 304.85,444.77 C309.29,451.69 313.16,455.05 321.25,459.00 C333.27,464.87 335.42,470.90 330.17,484.00 C328.99,486.94 327.66,490.95 326.74,494.27 ZM 540.10 494.55 C538.94,489.23 537.24,483.82 535.83,481.50 C533.65,477.92 533.45,470.96 535.40,467.20 C537.29,463.57 540.38,460.93 547.23,457.09 C553.31,453.68 557.52,449.26 561.08,442.55 C562.01,440.80 562.54,439.77 562.70,438.71 C562.83,440.37 562.80,442.05 562.60,443.74 C561.43,453.72 557.34,460.21 549.78,464.10 C544.15,466.99 539.23,472.45 537.94,477.21 C536.99,480.76 537.13,482.63 538.83,488.97 C539.34,490.88 539.77,492.74 540.10,494.55 ZM 607.99 366.14 C609.69,371.74 610.26,377.19 609.16,380.87 C607.61,386.03 605.75,387.87 602.65,387.27 C600.99,386.96 598.56,388.21 597.14,389.75 C597.73,388.74 598.70,387.91 599.93,387.52 C601.86,386.91 602.61,385.05 606.53,371.28 L 607.99 366.14 ZM 582.83 338.96 C588.81,340.93 594.07,344.07 598.11,348.23 C599.68,349.85 601.16,351.80 602.50,353.94 C598.81,348.24 594.19,344.22 587.87,341.11 C586.18,340.28 584.51,339.56 582.83,338.96 ZM 597.45 394.74 C598.99,396.22 601.60,397.53 604.48,398.17 C600.57,397.49 598.70,396.57 597.45,394.74 ZM 414.86 263.50 C415.14,263.81 415.42,264.15 415.71,264.51 L 415.42 264.17 C408.61,256.23 398.14,252.05 384.96,252.02 C384.88,252.02 384.81,252.02 384.73,252.02 C396.56,251.82 407.96,255.63 414.86,263.50 ZM 357.95 441.57 C359.85,447.11 358.29,453.02 353.33,459.52 C358.12,453.24 359.67,447.19 357.95,441.57 ZM 414.41 527.78 C411.05,523.05 406.38,519.06 401.12,516.72 C406.71,519.21 411.18,522.94 414.41,527.78 ZM 262.02 477.03 C262.43,476.42 262.55,476.00 262.29,476.00 C261.91,476.00 263.20,474.31 265.17,472.25 C266.32,471.04 267.25,470.04 267.98,469.16 C266.96,470.50 265.68,471.96 264.66,472.90 C263.23,474.21 262.30,475.68 262.59,476.15 C262.88,476.62 262.67,477.00 262.13,477.00 C262.10,477.00 262.06,477.01 262.02,477.03 ZM 563.63 536.97 C563.91,536.07 564.39,535.36 565.06,534.94 C565.97,534.36 567.24,534.07 568.51,534.05 C566.03,534.24 564.37,535.28 563.63,536.97 ZM 343.62 279.09 C344.57,273.84 347.12,269.31 351.55,265.00 C347.40,269.12 344.55,273.95 343.62,279.09 ZM 450.91 528.22 C454.08,523.26 458.24,519.59 463.54,516.96 C458.43,519.49 454.15,523.35 450.91,528.22 ZM 558.74 426.61 C556.13,422.57 552.32,418.93 548.23,416.79 C552.64,419.10 556.23,422.54 558.74,426.61 ZM 269.79 466.38 C270.48,464.60 269.85,463.14 268.26,460.62 C270.38,463.98 270.74,464.62 269.79,466.38 ZM 511.13 436.44 C512.67,434.19 514.81,432.09 517.53,430.21 C514.73,432.32 512.63,434.36 511.13,436.44 ZM 226.58 441.09 C228.81,434.09 232.94,428.10 238.49,424.11 C233.04,428.03 228.85,434.12 226.58,441.09 ZM 513.52 459.61 C512.86,458.55 512.19,457.46 511.59,456.50 C510.54,454.78 509.73,453.08 509.16,451.40 C509.88,453.39 511.15,455.75 513.52,459.61 ZM 600.44 492.84 C599.99,489.00 599.33,486.56 598.25,484.50 C597.08,482.26 594.81,479.44 592.22,476.83 C594.81,479.44 597.09,482.26 598.27,484.50 C599.40,486.65 600.05,489.02 600.44,492.84 ZM 298.02 531.77 C298.15,531.89 298.25,532.02 298.33,532.15 C299.06,533.31 298.98,535.43 298.06,539.26 C298.98,535.43 299.04,533.12 298.02,531.77 ZM 628.23 423.08 C628.63,423.45 629.08,423.86 629.57,424.30 C630.32,424.98 631.06,425.72 631.77,426.52 L 630.21 425.02 C629.45,424.29 628.80,423.65 628.23,423.08 ZM 601.31 455.06 C600.32,456.28 598.30,458.70 596.84,460.43 L 594.17 463.57 L 597.06 466.54 L 594.09 463.66 L 596.80 460.47 C598.28,458.72 600.32,456.28 601.31,455.06 ZM 442.35 275.84 C443.75,271.80 446.29,267.77 449.50,264.27 C446.35,267.73 443.84,271.72 442.35,275.84 ZM 374.70 560.09 C373.83,559.33 373.32,558.29 372.60,556.60 C373.22,558.07 373.93,559.24 374.70,560.09 ZM 305.97 427.30 C308.07,424.08 311.18,421.34 315.72,418.42 C311.23,421.31 308.11,424.09 305.97,427.30 ZM 269.64 487.17 C268.51,490.42 268.00,494.29 268.00,498.99 C268.00,502.32 267.90,504.72 267.57,506.40 C267.85,504.65 268.00,502.07 268.00,498.91 C268.00,494.25 268.51,490.41 269.64,487.17 ZM 334.45 557.00 C335.96,557.00 337.44,557.83 338.45,559.00 C337.34,557.85 335.81,557.00 334.45,557.00 ZM 508.49 448.84 C508.22,447.41 508.13,446.00 508.22,444.62 C508.18,445.43 508.20,446.27 508.28,447.14 C508.33,447.74 508.40,448.30 508.49,448.84 ZM 547.21 562.86 C549.62,562.93 551.90,562.26 554.78,560.86 C551.85,562.28 549.62,562.95 547.21,562.86 ZM 495.86 557.43 C497.32,556.76 499.39,556.39 503.02,555.98 C499.50,556.38 497.36,556.78 495.86,557.43 ZM 349.10 430.56 C349.97,431.24 350.79,431.91 351.54,432.59 C350.77,431.91 349.94,431.23 349.10,430.56 Z" fill="rgba(215,70,82,1)"/>
<path d="M 399.75 485.61 C398.13,484.38 398.00,481.17 398.00,443.59 L 398.00 402.91 L 400.45 400.45 C403.84,397.07 406.71,397.37 413.59,401.81 C421.86,407.15 460.06,429.89 468.50,434.50 C476.33,438.77 480.00,441.70 480.00,443.67 C480.00,444.40 479.66,444.89 479.25,444.76 C477.48,444.20 445.09,463.00 419.08,479.68 C407.29,487.23 403.45,488.41 399.75,485.61 Z" fill="rgba(245,242,228,1)"/>
<path d="M 371.86 585.43 C369.25,584.63 365.10,582.11 362.36,579.66 C356.52,574.43 353.98,573.00 350.52,573.00 C344.71,573.00 338.56,567.38 339.69,563.09 C340.40,560.38 337.50,557.00 334.45,557.00 C333.22,557.00 330.26,557.89 327.86,558.98 C319.34,562.84 308.82,561.11 302.27,554.77 C297.60,550.25 296.44,546.00 298.06,539.26 C298.98,535.43 299.06,533.31 298.33,532.15 C297.11,530.20 291.42,529.41 289.58,530.94 C288.87,531.52 286.76,531.74 284.89,531.42 C282.33,530.97 281.86,531.09 283.00,531.90 C284.24,532.78 284.10,532.97 282.19,532.98 C277.33,533.02 270.96,530.66 267.19,527.43 C262.75,523.63 260.53,519.51 259.50,513.15 L 258.79 508.79 L 261.94 509.49 C267.07,510.61 268.00,509.01 268.00,498.99 C268.00,487.60 271.00,481.15 278.54,476.33 C285.41,471.94 288.00,469.41 288.00,467.09 C288.00,466.01 285.76,462.56 283.02,459.43 C280.29,456.30 277.05,451.21 275.84,448.12 C272.87,440.57 272.82,430.22 275.73,424.10 C278.17,418.95 277.26,415.35 273.25,414.35 C266.86,412.74 261.93,420.43 261.20,433.18 C260.76,440.69 260.65,441.00 258.29,441.00 C255.42,441.00 249.99,446.03 250.02,448.67 C250.05,453.02 254.60,455.62 259.40,454.03 C262.99,452.85 265.67,453.39 265.67,455.30 C265.67,455.97 266.82,458.34 268.23,460.57 C271.16,465.22 270.90,466.24 265.17,472.25 C263.20,474.31 261.91,476.00 262.29,476.00 C262.67,476.00 262.25,476.86 261.35,477.90 C259.75,479.77 259.67,479.77 256.61,477.90 C254.90,476.85 249.81,474.86 245.31,473.48 C236.90,470.90 230.38,466.79 226.59,461.67 C224.91,459.39 224.53,457.54 224.67,452.17 C224.95,440.83 230.28,430.01 238.49,424.11 L 243.00 420.88 L 243.00 412.17 C243.00,404.56 243.31,403.01 245.47,399.83 C248.36,395.57 252.82,392.63 258.80,391.04 C263.63,389.76 267.00,386.92 267.00,384.15 C267.00,381.43 263.78,379.00 260.17,379.00 L 257.00 379.00 L 257.00 373.04 C257.00,357.40 268.21,343.31 285.00,337.83 C290.23,336.12 294.15,335.69 305.10,335.60 C320.47,335.49 321.47,335.10 322.54,328.78 C323.19,324.94 323.97,323.88 330.17,318.55 C331.51,317.40 332.02,315.89 331.81,313.69 C331.54,310.91 331.00,310.38 327.68,309.56 C324.58,308.79 323.20,308.98 320.26,310.56 C317.22,312.19 311.94,318.69 310.75,322.25 C310.57,322.78 305.77,323.37 300.08,323.55 L 289.74 323.88 L 290.33 318.88 C291.22,311.31 297.12,299.96 302.74,294.95 C311.21,287.42 322.82,283.48 332.98,284.68 C339.70,285.48 342.75,283.87 343.62,279.09 C346.31,264.22 365.02,251.97 384.96,252.02 C398.14,252.05 408.61,256.23 415.42,264.17 L 419.00 268.36 L 418.99 294.93 C418.97,323.63 418.22,329.68 413.55,338.90 C406.91,352.00 395.45,356.65 380.00,352.50 C373.06,350.64 366.93,350.60 364.47,352.40 C362.99,353.48 362.60,354.89 362.74,358.65 C363.32,374.58 362.96,378.30 360.39,383.03 C358.84,385.88 356.29,388.63 353.85,390.10 C337.85,399.71 336.50,401.37 336.50,411.50 C336.50,420.35 337.72,422.36 347.10,429.07 C350.62,431.58 354.46,435.05 355.63,436.79 C360.30,443.70 359.51,451.42 353.33,459.52 C349.54,464.48 348.36,469.40 350.36,471.89 C350.97,472.65 353.37,474.09 355.69,475.08 C360.11,476.97 366.00,483.84 366.00,487.09 C366.00,488.08 366.45,489.16 367.00,489.50 C367.55,489.84 368.00,492.54 368.00,495.50 C368.00,498.46 367.55,501.16 367.00,501.50 C366.45,501.84 366.00,503.91 366.00,506.10 C366.00,508.99 366.67,510.76 368.43,512.52 C370.77,514.86 371.35,514.94 383.68,514.81 C394.65,514.69 397.17,514.96 401.12,516.72 C410.69,520.97 418.31,530.71 419.64,540.37 C420.82,548.96 412.71,569.08 404.79,577.22 C395.96,586.28 384.17,589.22 371.86,585.43 ZM 394.30 559.16 C401.58,551.88 396.85,535.88 386.02,531.17 C383.59,530.12 377.39,529.45 366.00,529.02 C351.21,528.45 348.93,528.12 343.95,525.84 C336.24,522.30 331.76,518.04 327.88,510.57 C324.57,504.18 324.57,504.15 325.86,497.83 C326.58,494.35 328.51,488.12 330.17,484.00 C335.42,470.90 333.27,464.87 321.25,459.00 C313.16,455.05 309.29,451.69 304.85,444.77 C302.27,440.74 301.89,439.39 302.48,436.28 C303.92,428.58 307.56,423.67 315.72,418.42 C318.90,416.38 321.19,414.10 321.56,412.62 C321.90,411.27 321.46,405.97 320.59,400.84 C318.69,389.65 319.57,382.11 323.57,375.30 C326.99,369.45 333.10,366.49 339.70,367.48 C343.21,368.00 344.59,367.77 346.09,366.42 C348.57,364.17 348.50,361.88 345.80,356.71 C340.13,345.89 345.43,330.90 357.01,325.00 C363.12,321.88 372.75,320.65 381.06,321.94 C387.42,322.93 388.49,322.86 390.14,321.38 C392.40,319.33 392.57,314.43 390.45,312.31 C389.60,311.46 387.69,310.66 386.20,310.54 C384.72,310.42 382.71,309.97 381.74,309.55 C380.78,309.13 378.50,309.06 376.69,309.40 C371.51,310.37 369.57,308.31 369.57,301.82 C369.57,292.61 375.31,286.00 383.32,286.00 C387.31,286.00 392.00,282.72 392.00,279.93 C392.00,273.68 381.53,271.94 372.12,276.63 C361.97,281.69 356.00,292.57 356.00,306.03 L 356.00 312.70 L 352.11 314.45 C346.88,316.81 339.75,324.29 336.33,331.00 C333.99,335.59 333.47,338.04 333.17,345.75 L 332.81 354.99 L 328.44 356.93 C323.77,358.99 313.71,367.72 314.51,369.02 C314.77,369.44 314.36,370.03 313.60,370.32 C312.84,370.62 310.99,374.53 309.49,379.03 C307.09,386.24 306.39,387.36 303.50,388.56 C297.81,390.94 290.43,387.80 289.45,382.57 C288.64,378.27 289.34,376.10 293.04,371.45 C296.36,367.27 296.74,364.88 294.43,362.57 C290.75,358.89 282.96,362.62 279.34,369.79 C276.16,376.07 276.67,386.38 280.42,392.06 C283.76,397.11 291.06,400.72 299.74,401.63 C304.86,402.17 305.97,402.64 306.90,404.68 C307.50,406.01 308.00,407.43 308.00,407.83 C308.00,408.24 305.10,411.54 301.56,415.17 C295.99,420.89 294.83,422.73 292.93,429.01 C288.94,442.13 292.22,456.60 301.50,466.87 C303.56,469.14 304.79,471.00 304.24,471.00 C302.73,471.00 292.00,481.12 292.00,482.54 C292.00,483.23 291.37,484.03 290.60,484.32 C288.26,485.22 285.00,495.53 285.00,502.04 C285.00,506.67 285.45,508.45 287.00,510.00 C291.54,514.54 295.96,511.45 296.08,503.68 C296.23,493.51 301.62,484.80 310.44,480.48 C318.12,476.73 319.09,477.73 316.59,486.78 C314.68,493.70 314.17,496.88 313.58,505.50 C312.44,522.06 322.66,539.18 338.19,546.74 C345.09,550.10 351.35,551.55 363.35,552.58 C371.06,553.24 371.23,553.32 372.59,556.56 C374.22,560.47 374.82,560.90 380.87,562.47 C386.58,563.95 390.47,562.99 394.30,559.16 ZM 473.00 585.63 C465.83,583.65 461.19,581.03 456.42,576.27 C447.38,567.23 442.90,554.43 444.92,543.45 C447.16,531.30 453.87,521.75 463.54,516.96 C468.13,514.68 469.60,514.50 483.20,514.50 C493.94,514.50 498.25,514.15 499.20,513.20 C500.14,512.26 500.50,508.18 500.50,498.63 C500.50,485.75 500.58,485.24 503.32,481.10 C505.37,478.00 507.63,476.17 511.55,474.44 C517.94,471.61 519.28,468.73 516.35,464.12 C509.74,453.70 508.65,451.42 508.28,447.14 C507.64,439.90 510.88,434.70 519.85,428.54 C529.00,422.26 531.23,419.26 531.79,412.48 C532.68,401.74 527.79,394.72 516.89,391.12 C505.52,387.36 502.78,382.46 503.61,367.37 C504.09,358.60 503.92,357.14 502.11,354.29 C499.77,350.59 495.18,348.97 490.19,350.08 C488.38,350.48 483.50,353.11 479.35,355.91 C472.81,360.33 471.16,361.00 466.87,361.00 C455.36,361.00 447.73,354.32 443.13,340.22 C441.30,334.59 441.07,331.18 440.94,307.72 C440.86,293.30 441.13,280.15 441.54,278.50 C444.02,268.53 452.89,258.71 462.80,254.94 C474.23,250.60 491.20,251.48 501.94,256.97 C510.84,261.53 519.96,272.97 519.99,279.63 C520.01,283.71 522.50,284.50 535.41,284.50 C546.79,284.50 547.82,284.67 552.97,287.38 C566.59,294.55 574.67,305.70 577.40,321.14 C577.99,324.42 577.81,324.83 575.54,325.40 C574.15,325.75 572.14,325.48 571.05,324.80 C569.50,323.83 568.11,323.82 564.58,324.77 C558.94,326.28 557.69,325.79 556.12,321.46 C554.55,317.13 550.57,312.33 547.13,310.63 C545.68,309.92 542.26,309.37 539.53,309.42 C535.04,309.49 534.46,309.77 533.59,312.25 C532.75,314.61 533.02,315.41 535.48,317.98 C537.06,319.63 539.10,321.22 540.02,321.51 C542.04,322.15 544.00,326.15 544.00,329.61 C544.00,336.64 548.12,338.54 560.00,337.00 C570.82,335.59 579.17,336.82 587.87,341.11 C595.80,345.01 601.06,350.35 605.14,358.64 L 608.30 365.05 L 606.53 371.28 C602.61,385.05 601.86,386.91 599.93,387.52 C597.12,388.41 595.69,391.55 596.99,393.98 C598.42,396.65 600.58,397.68 606.50,398.48 C614.46,399.56 617.41,400.80 621.07,404.58 C624.16,407.76 624.50,408.68 624.50,413.81 C624.50,419.42 624.58,419.58 630.21,425.02 L 635.92 430.53 L 635.67 442.02 C635.46,451.13 634.99,454.43 633.35,458.00 C629.57,466.22 621.91,472.32 611.38,475.49 L 607.02 476.80 L 600.59 470.18 L 594.17 463.57 L 596.84 460.43 C598.30,458.70 600.32,456.28 601.31,455.06 C602.51,453.59 603.70,453.07 604.81,453.52 C609.15,455.27 614.06,455.25 616.02,453.48 C620.25,449.65 617.44,443.77 610.39,441.72 L 605.88 440.40 L 605.62 433.95 C605.37,427.44 602.57,419.39 599.31,415.79 C597.16,413.41 592.48,413.52 590.00,416.00 C587.52,418.48 587.48,420.06 589.84,423.12 C596.16,431.31 594.84,443.49 586.64,452.65 C584.26,455.32 581.79,458.48 581.15,459.68 C579.71,462.42 579.65,467.00 581.06,467.00 C581.64,467.00 581.89,467.37 581.61,467.82 C581.34,468.27 582.55,469.45 584.30,470.45 C589.16,473.22 595.92,480.03 598.25,484.50 C599.79,487.45 600.49,491.16 600.92,498.60 C601.24,504.15 602.03,509.33 602.67,510.11 C603.59,511.22 603.34,512.58 601.51,516.39 C597.35,525.00 588.00,532.89 580.00,534.52 C578.08,534.91 576.00,535.63 575.38,536.13 C574.68,536.69 573.80,536.46 573.01,535.51 C571.62,533.84 567.30,533.53 565.06,534.94 C562.94,536.28 562.70,540.57 564.54,544.45 C566.14,547.81 566.11,547.92 562.68,553.29 C560.21,557.15 557.93,559.34 554.78,560.86 C549.08,563.63 545.72,563.55 539.16,560.49 C531.46,556.91 527.06,558.60 526.97,565.18 C526.95,566.46 525.85,568.29 524.53,569.25 C522.22,570.93 521.98,570.92 518.79,569.04 C514.24,566.36 511.71,567.28 507.49,573.15 C503.45,578.77 496.75,583.40 489.57,585.54 C483.70,587.28 479.10,587.30 473.00,585.63 ZM 488.09 563.25 C489.88,562.29 492.29,560.45 493.45,559.17 C495.10,557.32 497.11,556.65 503.02,555.98 C507.13,555.51 512.45,554.43 514.83,553.58 C528.83,548.58 541.50,537.71 547.55,525.50 C553.36,513.78 554.32,497.26 549.89,485.50 C547.55,479.30 547.55,479.31 550.09,477.95 C551.65,477.12 552.92,477.14 555.08,478.03 C558.71,479.54 564.74,486.12 566.63,490.67 C568.48,495.09 570.26,503.68 570.08,507.38 C569.75,514.55 577.46,523.09 581.80,520.35 C585.38,518.10 585.55,516.27 582.72,510.68 C581.12,507.51 580.00,503.67 580.00,501.33 C580.00,491.82 574.58,480.55 566.34,472.96 L 561.79 468.76 L 563.89 466.13 C568.25,460.69 572.00,453.32 573.10,448.01 C575.66,435.69 571.40,421.24 562.72,412.81 C558.75,408.95 558.33,408.12 558.74,404.84 C559.15,401.56 559.56,401.12 562.80,400.51 C578.87,397.50 590.30,379.86 584.33,367.28 C581.41,361.12 573.20,357.95 569.57,361.57 C567.43,363.71 567.58,364.92 570.50,369.21 C575.14,376.04 572.76,383.01 564.47,386.91 C558.59,389.67 557.83,389.07 555.56,380.00 C552.94,369.47 547.09,362.15 537.32,357.16 L 533.21 355.07 L 532.83 346.78 C532.54,340.37 531.83,337.14 529.68,332.50 C526.37,325.36 519.28,317.75 512.88,314.47 L 508.26 312.10 L 507.80 303.80 C507.26,293.72 504.95,288.07 499.02,282.26 C493.18,276.52 487.63,274.00 480.88,274.00 C474.85,274.00 473.00,275.14 473.00,278.87 C473.00,282.57 475.74,285.00 479.92,285.00 C485.13,285.00 490.12,288.08 493.06,293.11 C495.27,296.88 495.52,298.14 494.87,302.24 C494.46,304.86 493.87,307.40 493.56,307.90 C493.26,308.39 489.74,309.12 485.75,309.51 C473.78,310.68 469.22,313.80 471.97,318.94 C473.71,322.19 476.02,322.80 483.00,321.88 C494.61,320.34 505.76,322.71 512.28,328.08 C520.72,335.04 524.18,346.81 520.12,354.77 C517.58,359.75 517.39,364.25 519.66,366.13 C520.70,366.99 523.36,367.43 526.87,367.30 C533.46,367.06 537.41,369.09 541.32,374.75 C545.64,380.98 546.53,387.18 545.02,400.36 C544.29,406.64 543.99,412.52 544.33,413.43 C544.68,414.33 546.44,415.84 548.23,416.79 C554.32,419.98 559.80,426.50 561.60,432.70 C563.23,438.30 563.22,438.53 561.08,442.55 C557.52,449.26 553.31,453.68 547.23,457.09 C540.38,460.93 537.29,463.57 535.40,467.20 C533.45,470.96 533.65,477.92 535.83,481.50 C537.95,484.98 540.74,495.46 541.32,502.12 C541.69,506.38 541.34,507.25 536.61,513.57 C525.31,528.68 516.93,532.77 495.00,533.91 C479.46,534.72 476.66,535.53 471.81,540.66 C468.41,544.26 467.00,547.99 467.00,553.43 C467.00,563.72 477.84,568.76 488.09,563.25 Z" fill="rgba(249,153,146,1)"/>
</g>
</svg>